<svg width="60" height="60" viewBox="0 0 60 60" fill="none" xmlns="http://www.w3.org/2000/svg">
<path fill-rule="evenodd" clip-rule="evenodd" d="M12.1429 5C8.19797 5 5 7.79821 5 11.25V55L17.5 48.75L30 55L42.5 48.75L55 55V11.25C55 7.79821 51.802 5 47.8571 5H12.1429Z" fill="#2B2929"/>
<path d="M34.3944 21.6476C34.3092 20.7101 33.9299 19.9814 33.2566 19.4615C32.5918 18.9331 31.6416 18.6689 30.4058 18.6689C29.5876 18.6689 28.9058 18.7754 28.3603 18.9885C27.8149 19.2016 27.4058 19.4956 27.133 19.8706C26.8603 20.2371 26.7197 20.659 26.7112 21.1362C26.6941 21.5283 26.7708 21.8734 26.9413 22.1717C27.1203 22.47 27.3759 22.7342 27.7083 22.9644C28.0492 23.1859 28.4583 23.382 28.9356 23.5524C29.4129 23.7229 29.9498 23.872 30.5464 23.9999L32.7964 24.5112C34.0918 24.7925 35.2339 25.1675 36.2225 25.6362C37.2197 26.105 38.0549 26.6632 38.7282 27.3109C39.41 27.9587 39.9257 28.7044 40.2751 29.5482C40.6245 30.3919 40.8035 31.3379 40.812 32.3862C40.8035 34.0396 40.3859 35.4587 39.5592 36.6433C38.7325 37.828 37.5436 38.7357 35.9924 39.3663C34.4498 39.997 32.5876 40.3124 30.4058 40.3124C28.2154 40.3124 26.3063 39.9842 24.6785 39.328C23.0507 38.6717 21.785 37.6746 20.8816 36.3365C19.9782 34.9984 19.5137 33.3067 19.4882 31.2612H25.5478C25.599 32.105 25.8248 32.8081 26.2254 33.3706C26.6259 33.9331 27.1757 34.3592 27.8745 34.649C28.5819 34.9388 29.4001 35.0837 30.3291 35.0837C31.1813 35.0837 31.9058 34.9686 32.5024 34.7385C33.1075 34.5084 33.572 34.1888 33.8958 33.7797C34.2197 33.3706 34.3859 32.9019 34.3944 32.3734C34.3859 31.8791 34.2325 31.4573 33.9342 31.1078C33.6359 30.7499 33.1757 30.443 32.5535 30.1874C31.9399 29.9232 31.1558 29.6803 30.2012 29.4587L27.4654 28.8195C25.1984 28.2996 23.4129 27.4601 22.1089 26.301C20.8049 25.1334 20.1572 23.5567 20.1657 21.5709C20.1572 19.9516 20.5918 18.5325 21.4697 17.3138C22.3475 16.095 23.562 15.1448 25.1132 14.4629C26.6643 13.7811 28.4328 13.4402 30.4186 13.4402C32.447 13.4402 34.2069 13.7854 35.6984 14.4757C37.1984 15.1575 38.3617 16.1163 39.1884 17.3521C40.0151 18.5879 40.437 20.0198 40.4541 21.6476H34.3944Z" fill="white"/>
</svg>
