<svg width="400" height="244" viewBox="0 0 400 244" fill="none" xmlns="http://www.w3.org/2000/svg">
<path d="M-91.8878 215.54C3.17049 195.364 78.0635 195.962 130.911 200.989C174.968 205.182 185.831 210.756 223.998 211.028C306.821 211.619 411.325 186.484 409.253 148.73C408.232 130.132 377.997 122.163 341.595 95.8467C308.85 72.1734 273.018 34.6527 267.612 -24.1999" stroke="#2B2929" stroke-opacity="0.25" stroke-miterlimit="10"/>
<path d="M-81.9707 220.199C7.04086 198.914 79.2025 198.552 129.931 202.568C172.623 205.95 184.304 210.208 223.222 209.715C304.863 208.682 403.602 185.38 404.124 148.838C404.395 130.015 376.9 120.989 342.09 93.9583C311.444 70.1606 276.973 32.8897 271.167 -25.1801" stroke="#2B2929" stroke-opacity="0.25" stroke-miterlimit="10"/>
<path d="M-72.0559 224.854C10.909 202.46 80.3762 201.127 128.956 204.137C170.342 206.701 182.749 209.669 222.45 208.391C302.871 205.803 396.059 184.235 398.999 148.929C400.586 129.854 375.791 119.828 342.58 92.0558C314.005 68.158 280.919 31.1153 274.715 -26.1726" stroke="#2B2929" stroke-opacity="0.25" stroke-miterlimit="10"/>
<path d="M-62.1435 229.508C14.7769 206.005 81.5927 203.687 127.989 205.709C168.109 207.453 181.171 209.153 221.682 207.065C300.857 202.992 388.699 183.072 393.877 149.018C396.821 129.67 374.673 118.692 343.072 90.1516C316.532 66.1827 284.866 29.3397 278.252 -27.1643" stroke="#2B2929" stroke-opacity="0.25" stroke-miterlimit="10"/>
<path d="M-52.2348 234.159C18.6465 209.543 82.8497 206.224 127.009 207.274C165.931 208.198 179.587 208.654 220.906 205.745C298.818 200.254 381.509 181.902 388.748 149.112C393.086 129.468 373.523 117.585 343.555 88.2533C319.016 64.2335 288.803 27.5686 281.79 -28.1491" stroke="#2B2929" stroke-opacity="0.25" stroke-miterlimit="10"/>
<path d="M-42.3297 238.809C22.5069 213.087 84.1507 208.738 126.036 208.841C163.813 208.934 177.981 208.187 220.135 204.422C296.783 197.577 374.496 180.723 383.628 149.204C389.408 129.247 372.343 116.504 344.044 86.3523C321.465 62.3024 292.745 25.7961 285.319 -29.1441" stroke="#2B2929" stroke-opacity="0.25" stroke-miterlimit="10"/>
<path d="M-32.4281 243.456C26.3639 216.623 85.4893 211.217 125.063 210.407C161.756 209.657 176.377 207.741 219.365 203.099C294.756 194.959 367.65 179.545 378.508 149.295C385.787 129.016 371.14 115.435 344.535 84.4521C323.871 60.3883 296.691 24.0211 288.855 -30.1348" stroke="#2B2929" stroke-opacity="0.25" stroke-miterlimit="10"/>
<path d="M-22.5231 248.101C30.2373 220.163 86.874 213.655 124.096 211.971C159.762 210.358 174.788 207.315 218.601 201.776C292.747 192.395 360.967 178.369 373.396 149.384C382.235 128.775 369.894 114.388 345.029 82.5497C326.233 58.4918 300.631 22.2539 292.39 -31.1264" stroke="#2B2929" stroke-opacity="0.25" stroke-miterlimit="10"/>
<path d="M-12.6321 252.748C34.0947 223.702 88.2798 216.049 123.122 213.539C157.82 211.036 173.199 206.929 217.829 200.455C290.757 189.883 354.425 177.206 368.279 149.477C378.746 128.536 368.588 113.359 345.515 80.6523C328.552 56.6065 304.564 20.4795 295.93 -32.1214" stroke="#2B2929" stroke-opacity="0.25" stroke-miterlimit="10"/>
<path d="M-2.74372 257.389C37.9529 227.236 89.7074 218.385 122.148 215.101C155.917 211.683 171.615 206.554 217.057 199.132C288.786 187.416 348.015 176.055 363.163 149.566C375.325 128.299 367.23 112.339 346.001 78.7507C330.819 54.729 308.5 18.7053 299.453 -33.1117" stroke="#2B2929" stroke-opacity="0.25" stroke-miterlimit="10"/>
<path d="M7.15224 262.032C41.8241 230.769 91.1557 220.666 121.186 216.666C154.065 212.288 170.07 206.211 216.296 197.812C286.862 184.99 341.743 174.924 358.06 149.658C371.999 128.074 365.822 111.332 346.497 76.8532C333.051 52.8636 312.443 16.9358 302.994 -34.1006" stroke="#2B2929" stroke-opacity="0.25" stroke-miterlimit="10"/>
<path d="M17.0391 266.672C45.6767 234.305 92.5937 222.88 120.218 218.23C152.225 212.843 168.55 205.889 215.531 196.492C284.97 182.6 335.58 173.812 352.954 149.748C368.756 127.864 364.347 110.329 346.991 74.9556C335.235 51.0007 316.379 15.1647 306.525 -35.0922" stroke="#2B2929" stroke-opacity="0.25" stroke-miterlimit="10"/>
<path d="M26.9242 271.311C49.5355 237.838 94.0071 225.029 119.252 219.793C150.377 213.338 167.049 205.596 214.768 195.171C283.117 180.24 329.519 172.723 347.851 149.837C365.602 127.676 362.809 109.329 347.483 73.0573C337.377 49.1398 320.316 13.3942 310.057 -36.0842" stroke="#2B2929" stroke-opacity="0.25" stroke-miterlimit="10"/>
<path d="M36.8053 275.948C53.3949 241.368 95.38 227.114 118.286 221.355C148.489 213.763 165.586 205.322 214.001 193.852C281.3 177.908 323.539 171.659 342.749 149.929C362.555 127.514 361.2 108.33 347.974 71.1609C339.479 47.2777 324.249 11.6221 313.592 -37.0733" stroke="#2B2929" stroke-opacity="0.25" stroke-miterlimit="10"/>
<path d="M46.6831 280.583C57.2505 244.898 96.6899 229.138 117.316 222.919C146.514 214.115 164.152 205.072 213.237 192.533C279.528 175.598 317.648 170.629 337.648 150.02C359.609 127.389 359.524 107.327 348.461 69.2626C341.532 45.4139 328.179 9.85328 317.111 -38.0669" stroke="#2B2929" stroke-opacity="0.25" stroke-miterlimit="10"/>
<path d="M56.5599 285.217C61.1129 248.423 97.92 231.111 116.357 224.478C144.421 214.381 162.764 204.838 212.479 191.211C277.805 173.31 311.824 169.623 332.558 150.107C356.78 127.304 357.792 106.318 348.966 67.3656C343.568 43.5432 332.123 8.08302 320.651 -39.0582" stroke="#2B2929" stroke-opacity="0.25" stroke-miterlimit="10"/>
<path d="M66.4381 289.846C64.9686 251.951 104.107 235.327 115.401 226.036C133.873 210.837 161.418 204.623 211.726 189.889C276.12 171.031 306.05 168.653 327.464 150.196C354.066 127.273 355.978 105.296 349.461 65.4691C345.565 41.6695 336.058 6.31388 324.187 -40.0473" stroke="#2B2929" stroke-opacity="0.25" stroke-miterlimit="10"/>
<path d="M76.3735 294.588C68.8881 255.576 104.522 236.823 114.517 227.686C132.036 211.674 160.197 204.512 211.076 188.649C274.622 168.841 300.462 167.791 322.525 150.349C351.626 127.355 354.269 104.314 350.116 63.6079C347.691 39.8137 340.147 4.5607 327.863 -41.0391" stroke="#2B2929" stroke-opacity="0.25" stroke-miterlimit="10"/>
<path d="M86.3383 299.359C72.83 259.225 104.641 238.353 113.66 229.358C130.496 212.567 159.047 204.436 210.469 187.428C273.191 166.676 294.931 166.981 317.632 150.522C349.353 127.523 352.543 103.333 350.825 61.7617C349.842 37.9622 344.29 2.81647 331.598 -42.022" stroke="#2B2929" stroke-opacity="0.25" stroke-miterlimit="10"/>
<path d="M96.3035 304.129C76.7721 262.875 101.99 239.136 112.8 231.028C134.102 215.062 157.934 204.371 209.849 186.201C271.796 164.514 289.4 166.206 312.722 150.689C347.175 127.76 350.732 102.328 351.515 59.9054C351.953 36.0897 348.42 1.06588 335.315 -43.0126" stroke="#2B2929" stroke-opacity="0.25" stroke-miterlimit="10"/>
<path d="M106.272 308.899C80.7145 266.525 102.739 241.214 111.937 232.699C130.849 215.194 156.855 204.321 209.224 184.974C270.434 162.358 283.864 165.472 307.806 150.858C345.115 128.085 348.877 101.312 352.208 58.056C354.044 34.2118 352.551 -0.679279 339.039 -43.997" stroke="#2B2929" stroke-opacity="0.25" stroke-miterlimit="10"/>
<path d="M116.243 313.67C84.6575 270.174 103.377 243.352 111.071 234.368C127.346 215.356 155.813 204.281 208.598 183.744C269.106 160.201 278.306 164.775 302.885 151.023C343.144 128.493 346.951 100.272 352.895 56.2004C356.118 32.3206 356.675 -2.43024 342.754 -44.986" stroke="#2B2929" stroke-opacity="0.25" stroke-miterlimit="10"/>
</svg>
